<svg xmlns="http://www.w3.org/2000/svg" viewBox="0 0 20 20" width="20" height="20">
	<path d="M17 3h-8c-1.1 0-2 .9-2 2v1h2V5h8v10h-8v-1H7v1c0 1.1.9 2 2 2h8c1.1 0 2-.9 2-2V5c0-1.1-.9-2-2-2z"/>
	<path d="M14.89 13.09l-2.11 2.11c-.17.17-.38.31-.6.42-.22.11-.46.19-.7.23-.24.04-.49.05-.73.02-.24-.03-.48-.1-.7-.2-.22-.1-.43-.23-.61-.39l-3.83-3.84c-.33-.33-.58-.73-.73-1.18-.15-.45-.19-.93-.12-1.4.07-.47.24-.92.49-1.33.25-.41.58-.78.97-1.08l.87-.61c.06-.04.12-.09.19-.12.07-.03.15-.05.22-.07.08-.02.15-.03.23-.03.08 0 .16.01.24.03.08.02.15.04.22.07.07.03.13.08.19.12l.87.61c.39.3.72.67.97 1.08.25.41.42.86.49 1.33.07.47.03.95-.12 1.4-.15.45-.4.85-.73 1.18zm-1.77 1.76l2.11-2.11c.17-.17.31-.38.42-.6.11-.22.19-.46.23-.7.04-.24.05-.49.02-.73-.03-.24-.1-.48-.2-.7-.1-.22-.23-.43-.39-.61l-3.83-3.84c-.33-.33-.73-.58-1.18-.73-.45-.15-.93-.19-1.4-.12-.47.07-.92.24-1.33.49-.41.25-.78.58-1.08.97l-.61.87c-.04.06-.09.12-.12.19-.03.07-.05.15-.07.22-.02.08-.03.15-.03.23 0 .08.01.16.03.24.02.08.04.15.07.22.03.07.08.13.12.19l.61.87c.3.39.67.72 1.08.97.41.25.86.42 1.33.49.47.07.95.03 1.4-.12.45-.15.85-.4 1.18-.73l3.83-3.84c.16-.18.29-.39.39-.61.1-.22.17-.46.2-.7.03-.24.02-.49-.02-.73-.04-.24-.12-.48-.23-.7-.11-.22-.25-.43-.42-.6l-2.11-2.11c-.17-.17-.38-.31-.6-.42-.22-.11-.46-.19-.7-.23-.24-.04-.49-.05-.73-.02-.24.03-.48.1-.7.2-.22.1-.43.23-.61.39l-3.83 3.84c-.33.33-.58.73-.73 1.18-.15.45-.19.93-.12 1.4.07.47.24.92.49 1.33.25.41.58.78.97 1.08l.87.61c.06.04.12.09.19.12.07.03.15.05.22.07.08.02.15.03.23.03.08 0 .16-.01.24-.03.08-.02.15-.04.22-.07.07-.03.13-.08.19-.12l.87-.61c.39-.3.72-.67.97-1.08.25-.41.42-.86.49-1.33.07-.47.03-.95-.12-1.4-.15-.45-.4-.85-.73-1.18l-3.83-3.84c-.18-.16-.39-.29-.61-.39-.22-.1-.46-.17-.7-.2-.24-.03-.49-.02-.73.02-.24.04-.48.12-.7.23-.22.11-.43.25-.6.42l-2.11 2.11c-.17.17-.31.38-.42.6-.11.22-.19.46-.23.7-.04.24-.05.49-.02.73.03.24.1.48.2.7.1.22.23.43.39.61l3.83 3.84c.33.33.73.58 1.18.73.45.15.93.19 1.4.12.47-.07.92-.24 1.33-.49.41-.25.78-.58 1.08-.97l.61-.87c.04-.06.09-.12.12-.19.03-.07.05-.15.07-.22.02-.08.03-.15.03-.23 0-.08-.01-.16-.03-.24-.02-.08-.04-.15-.07-.22-.03-.07-.08-.13-.12-.19l-.61-.87c-.3-.39-.67-.72-1.08-.97-.41-.25-.86-.42-1.33-.49-.47-.07-.95-.03-1.4.12-.45.15-.85.4-1.18.73l-3.83 3.84c-.16.18-.29.39-.39.61-.1.22-.17.46-.2.7-.03.24-.02.49.02.73.04.24.12.48.23.7.11.22.25.43.42.6z"/>
</svg>

